<svg width="16" height="16" viewBox="0 0 16 16" fill="none" xmlns="http://www.w3.org/2000/svg">
    <g opacity="0.5">
        <path fill-rule="evenodd" clip-rule="evenodd" d="M8.00015 1.3335C11.682 1.3335 14.6668 4.31825 14.6668 8.00015C14.6668 11.682 11.6821 14.6668 8.00015 14.6668C4.31828 14.6668 1.3335 11.6821 1.3335 8.00015C1.3335 4.31825 4.31828 1.3335 8.00015 1.3335ZM8.00015 10.1668C7.53987 10.1668 7.16678 10.5399 7.16678 11.0002C7.16678 11.4604 7.5399 11.8335 8.00012 11.8335C8.46034 11.8335 8.83346 11.4604 8.83346 11.0002C8.83346 10.5399 8.46034 10.1668 8.00012 10.1668M7.88887 4.25021C7.23996 4.25021 6.69456 4.427 6.25331 4.77959C5.73043 5.20196 5.46921 5.82572 5.46921 6.6514H6.88678V6.6419C6.88678 6.32687 6.95312 6.06846 7.08553 5.8669C7.26818 5.59596 7.5645 5.46034 7.97412 5.46034C8.22621 5.46034 8.44078 5.52653 8.61693 5.65865C8.83737 5.84171 8.94796 6.11881 8.94796 6.49065C8.94796 6.72387 8.89097 6.93171 8.77765 7.11459C8.68312 7.2784 8.5319 7.43897 8.32365 7.59662C7.88259 7.89909 7.59578 8.1985 7.46365 8.49484C7.35018 8.74059 7.29318 9.13131 7.29318 9.66684H8.62646C8.62646 9.31384 8.67337 9.04934 8.76834 8.87278C8.84384 8.72784 9.00156 8.57356 9.24106 8.40959C9.65715 8.10068 9.95309 7.81384 10.1297 7.54915C10.3438 7.23415 10.4512 6.86537 10.4512 6.443C10.4512 5.56768 10.0952 4.94681 9.38259 4.58112C8.95431 4.36059 8.4564 4.25015 7.8889 4.25015" fill="white" fill-opacity="0.8"/>
    </g>
</svg>
